<?xml version="1.0" encoding="utf-8"?>
<!-- Generator: Adobe Illustrator 24.1.1, SVG Export Plug-In . SVG Version: 6.00 Build 0)  -->
<svg version="1.1" id="Layer_1" xmlns="http://www.w3.org/2000/svg" xmlns:xlink="http://www.w3.org/1999/xlink" x="0px" y="0px"
	 viewBox="0 0 32 32" style="enable-background:new 0 0 32 32;" xml:space="preserve">
<style type="text/css">
	.st0{fill-rule:evenodd;clip-rule:evenodd;fill:#37362F;}
</style>
<g>
	<path class="st0" d="M25.9,2H6.1C4.5,2,3.9,2.6,3.9,4.2v19.3c0,0.2,0,0.3,0,0.5c0,0.3,0,0.7,0.4,1.1c0,0,0.4,0.3,0.4,0.3
		c0.2,0.1,0.3,0.2,0.5,0.2l9.7,4.1c0.5,0.2,0.7,0.3,1.1,0.3v0c0,0,0,0,0,0c0,0,0,0,0,0v0c0.4,0,0.6-0.1,1.1-0.3l9.7-4.1
		c0.2-0.1,0.3-0.1,0.5-0.2c0,0,0.3-0.2,0.4-0.3C28,24.7,28,24.4,28,24c0-0.2,0-0.3,0-0.5V4.2C28.1,2.6,27.5,2,25.9,2z M17.2,5.7h1.6
		v10.7h-1.6V5.7z M17.3,19.1c0.3,0,0.6,0,0.9,0c0,1.1,0,2.2,0,3.2h0c-0.3,0-0.5,0-0.8,0c0-0.6,0-1.3,0-1.9c-0.3,0.4-0.6,0.9-0.8,1.3
		h0c-0.3-0.4-0.6-0.9-0.8-1.3c0,0.6,0,1.3,0,1.9c-0.3,0-0.6,0-0.8,0c0-1.1,0-2.2,0-3.2c0.3,0,0.6,0,0.9,0c0.3,0.4,0.5,0.9,0.8,1.3
		C16.8,19.9,17.1,19.5,17.3,19.1z M11.9,5.7h2.6c1.3,0,2,0.7,2,2v2.9c0,1.3-0.7,2-2,2h-0.9v3.9h-1.6V5.7z M7.5,5.7h3.6v1.5h-2v3h1.9
		v1.5H9.1V15h2v1.5H7.5V5.7z M10.6,21.9L10.6,21.9c-0.3,0.2-0.6,0.4-1,0.5c-0.6,0.1-1.2,0-1.6-0.4c-0.4-0.4-0.6-0.9-0.6-1.5
		c0-0.5,0.3-0.9,0.7-1.2c0.2-0.1,0.4-0.2,0.6-0.3C9,19,9.3,19,9.5,19c0.1,0,0.3,0.1,0.4,0.1c0.2,0.1,0.4,0.2,0.6,0.3
		c-0.2,0.2-0.3,0.4-0.5,0.6c-0.1-0.1-0.3-0.2-0.4-0.2c-0.2-0.1-0.4-0.1-0.6,0c-0.4,0.1-0.6,0.4-0.7,0.8c0,0.5,0.3,1,0.8,1
		c0.2,0,0.5,0,0.6-0.1c0-0.1,0-0.3,0-0.4c-0.2,0-0.4,0-0.6,0c0-0.2,0-0.4,0-0.7c0.5,0,1,0,1.5,0C10.6,20.9,10.6,21.4,10.6,21.9z
		 M12.3,19.1c0.3,0,0.5,0,0.8,0c0.5,1.1,0.9,2.2,1.4,3.3h0c-0.3,0-0.6,0-0.9,0c-0.1-0.2-0.2-0.4-0.2-0.6c-0.4,0-0.8,0-1.3,0
		c-0.1,0.2-0.2,0.4-0.2,0.6c-0.3,0-0.6,0-0.9,0C11.4,21.2,11.8,20.1,12.3,19.1z M15.9,27.7l-4.6-1.6h9.3L15.9,27.7z M21.5,22.3
		L21.5,22.3c-0.9,0-1.7,0-2.6,0c0-1.1,0-2.2,0-3.2c0.9,0,1.7,0,2.6,0c0,0.2,0,0.5,0,0.7c-0.6,0-1.1,0-1.7,0c0,0.2,0,0.4,0,0.5
		c0.5,0,1,0,1.5,0c0,0.2,0,0.5,0,0.7c-0.5,0-1,0-1.5,0c0,0.2,0,0.4,0,0.6c0.6,0,1.2,0,1.7,0C21.5,21.8,21.5,22.1,21.5,22.3z
		 M19.7,14.6V7.6c0-1.3,0.7-2,2-2h0.8c1.3,0,2,0.6,2,2v2.2h-1.6V7.7c0-0.4-0.2-0.6-0.6-0.6H22c-0.4,0-0.6,0.2-0.6,0.6v6.8
		c0,0.4,0.2,0.6,0.6,0.6h0.3c0.4,0,0.6-0.2,0.6-0.6v-2.4h1.6v2.5c0,1.3-0.7,2-2,2h-0.8C20.4,16.5,19.7,15.9,19.7,14.6z M24.6,21.4
		c-0.1,0.9-1,1-1.7,0.9c-0.4-0.1-0.7-0.2-1-0.5c0.2-0.2,0.3-0.4,0.5-0.6c0.2,0.2,0.5,0.3,0.8,0.4c0.2,0,0.3,0,0.5,0
		c0.1,0,0.2-0.2,0.1-0.3c-0.1-0.1-0.3-0.2-0.4-0.2c-0.6-0.1-1.3-0.3-1.3-1c0-0.7,0.6-1.1,1.2-1.1c0.5,0,0.9,0.1,1.3,0.4
		c-0.1,0.2-0.3,0.4-0.4,0.6c-0.2-0.1-0.4-0.3-0.7-0.3c-0.2,0-0.6,0-0.6,0.3c0,0.1,0.1,0.2,0.2,0.2c0.1,0,0.3,0.1,0.4,0.1
		C24,20.5,24.6,20.7,24.6,21.4z"/>
	<path class="st0" d="M14.9,10.5V7.8c0-0.4-0.2-0.6-0.6-0.6h-0.7v4h0.7C14.7,11.1,14.9,10.9,14.9,10.5z"/>
	<path class="st0" d="M13.1,21c-0.1-0.3-0.2-0.6-0.4-0.9c-0.1,0.3-0.3,0.6-0.4,0.9C12.6,21,12.8,21,13.1,21L13.1,21z"/>
</g>
</svg>
