<svg xmlns="http://www.w3.org/2000/svg" viewBox="0 0 32 32"  fill-rule="evenodd" fill="#2d2e33" xmlns:v="https://vecta.io/nano"><path d="M25.9 2H6.1c-1.6 0-2.2.6-2.2 2.2V24c0 .3 0 .7.4 1.1l.4.3c.2.1.3.2.5.2l9.7 4.1c.5.2.7.3 1.1.3h0c.4 0 .6-.1 1.1-.3l9.7-4.1c.2-.1.3-.1.5-.2 0 0 .3-.2.4-.3.3-.4.3-.7.3-1.1V4.2c.1-1.6-.5-2.2-2.1-2.2zm-8.7 3.7h1.6v10.7h-1.6V5.7zm.1 13.4h.9v3.2h-.8v-1.9a9.13 9.13 0 0 0-.8 1.3h0a9.13 9.13 0 0 1-.8-1.3v1.9H15v-3.2h.9c.3.4.5.9.8 1.3.1-.5.4-.9.6-1.3zM11.9 5.7h2.6c1.3 0 2 .7 2 2v2.9c0 1.3-.7 2-2 2h-.9v3.9H12V5.7h-.1zm-4.4 0h3.6v1.5h-2v3H11v1.5H9.1V15h2v1.5H7.5V5.7zm3.1 16.2h0c-.3.2-.6.4-1 .5-.6.1-1.2 0-1.6-.4s-.6-.9-.6-1.5c0-.5.3-.9.7-1.2l.6-.3h.8c.1 0 .3.1.4.1l.6.3c-.2.2-.3.4-.5.6a.76.76 0 0 0-.4-.2c-.2-.1-.4-.1-.6 0-.4.1-.6.4-.7.8 0 .5.3 1 .8 1 .2 0 .5 0 .6-.1v-.4h-.6v-.7h1.5v1.5zm1.7-2.8h.8l1.4 3.3h-.9c-.1-.2-.2-.4-.2-.6h-1.3c-.1.2-.2.4-.2.6H11c.4-1.2.8-2.3 1.3-3.3zm3.6 8.6l-4.6-1.6h9.3l-4.7 1.6zm5.6-5.4h0-2.6v-3.2h2.6v.7h-1.7v.5h1.5v.7h-1.5v.6h1.7v.7zm-1.8-7.7v-7c0-1.3.7-2 2-2h.8c1.3 0 2 .6 2 2v2.2h-1.6V7.7c0-.4-.2-.6-.6-.6H22c-.4 0-.6.2-.6.6v6.8c0 .4.2.6.6.6h.3c.4 0 .6-.2.6-.6v-2.4h1.6v2.5c0 1.3-.7 2-2 2h-.8c-1.3-.1-2-.7-2-2zm4.9 6.8c-.1.9-1 1-1.7.9-.4-.1-.7-.2-1-.5.2-.2.3-.4.5-.6.2.2.5.3.8.4h.5c.1 0 .2-.2.1-.3a.76.76 0 0 0-.4-.2c-.6-.1-1.3-.3-1.3-1s.6-1.1 1.2-1.1c.5 0 .9.1 1.3.4-.1.2-.3.4-.4.6-.2-.1-.4-.3-.7-.3-.2 0-.6 0-.6.3 0 .1.1.2.2.2s.3.1.4.1c.5.2 1.1.4 1.1 1.1zm-9.7-10.9V7.8c0-.4-.2-.6-.6-.6h-.7v4h.7c.4-.1.6-.3.6-.7zM13.1 21c-.1-.3-.2-.6-.4-.9-.1.3-.3.6-.4.9h.8z"/></svg>