<?xml version="1.0" encoding="utf-8"?>
<!-- Generator: Adobe Illustrator 24.1.1, SVG Export Plug-In . SVG Version: 6.00 Build 0)  -->
<svg version="1.1" id="Layer_1" xmlns="http://www.w3.org/2000/svg" xmlns:xlink="http://www.w3.org/1999/xlink" x="0px" y="0px"
	 viewBox="0 0 64 64" style="enable-background:new 0 0 64 64;" xml:space="preserve">
<style type="text/css">
	.st0{fill-rule:evenodd;clip-rule:evenodd;fill:#26ABFF;}
</style>
<path class="st0" d="M56.2,62.6H7.8c-2.1,0-3.8-1.7-3.8-3.8v-3.8h56v3.8C60,60.9,58.3,62.6,56.2,62.6z M14.2,29.5H25v7.6
	c0,3.9,3.1,7,7,7c3.9,0,7-3.1,7-7v-7.6h10.8L60,49.8H4L14.2,29.5z M36.8,15c-0.7,0.6-1.4,1-2.2,1.2v20.8c0,1.4-1.1,2.5-2.5,2.5
	c-1.4,0-2.5-1.1-2.5-2.5V16.3c-0.8-0.3-1.6-0.7-2.2-1.2c-0.8-0.7-1.5-1.5-2-2.5c-0.5-1-0.8-2.2-0.8-3.5c0-4.2,3.4-7.6,7.6-7.6
	c4.2,0,7.6,3.4,7.6,7.6c0,1.2-0.3,2.4-0.8,3.5C38.3,13.5,37.6,14.4,36.8,15z"/>
</svg>
