<svg xmlns="http://www.w3.org/2000/svg" viewBox="0 0 64 64"  fill="#7c7c7c" xmlns:v="https://vecta.io/nano"><path d="M2.2 19.8h4.7v4.7H2.2zm4.523 24.458V27.451H2.241v16.807h4.482zm29.692 0v-4.202h-1.681c-.56 0-.84-.28-1.12-.56s-.28-.56-.56-1.12v-1.681-5.882h3.081v-3.922h-3.081v-6.723h-4.482v16.246c0 1.401 0 2.521.28 3.361s.56 1.681 1.12 2.241 1.401.84 2.241 1.12 1.961.28 3.361.28l.84.84zm25.49 0v-24.93h-4.482v24.65h4.482zM24.37 28.852c-1.12-1.401-3.081-1.961-5.042-1.961-1.12 0-1.961.28-2.801.56-.84.56-1.681 1.12-2.241 1.681l-.28.28v-.28-2.241H9.524v16.807h4.482v-8.964.56-.28c0-1.681.56-2.801 1.12-3.641.84-.84 1.681-1.12 2.801-1.12 1.401 0 2.241.28 2.801 1.12s.84 1.961.84 3.361h0 0 0 0v8.964h4.482v-9.524c.28-1.961-.56-3.922-1.681-5.322zm30.532 7.003c0-1.12-.28-2.241-.56-3.361-.56-1.12-1.12-1.961-1.681-2.801-.84-.84-1.681-1.401-2.801-1.961s-2.241-.56-3.641-.56c-1.12 0-2.241.28-3.361.56-1.12.56-1.961 1.12-2.801 1.961s-1.401 1.681-1.961 2.801-.56 2.241-.56 3.361.28 2.241.56 3.361 1.12 1.961 1.681 2.801c.84.84 1.681 1.401 2.801 1.961s2.241.84 3.641.84c3.641 0 6.162-1.681 7.563-3.361L50.7 38.936c-.56.84-2.241 1.961-4.202 1.961-1.12 0-2.241-.28-3.081-.84s-1.401-1.401-1.681-2.241v-.28h13.165v-1.681zm-13.165-1.681c0-1.12 1.401-3.361 4.482-3.361s4.482 2.241 4.482 3.361h-8.964z"/></svg>