<?xml version="1.0" encoding="utf-8"?>
<!-- Generator: Adobe Illustrator 25.2.1, SVG Export Plug-In . SVG Version: 6.00 Build 0)  -->
<svg version="1.1" id="Layer_1" xmlns:v="https://vecta.io/nano"
	 xmlns="http://www.w3.org/2000/svg" xmlns:xlink="http://www.w3.org/1999/xlink" x="0px" y="0px" viewBox="0 0 64 64"
	 style="enable-background:new 0 0 64 64;" xml:space="preserve">
<style type="text/css">
	.st0{fill:#0068B5;}
</style>
<rect id="rect4" x="2.2" y="19.8" class="st0" width="4.7" height="4.7"/>
<g id="g10" transform="matrix(2.8011204,0,0,2.8011204,-13.165266,-8.6834732)">
	<path id="path6" class="st0" d="M7.1,18.9v-6H5.5v6H7.1z M17.7,18.9v-1.5c-0.2,0-0.4,0-0.6,0c-0.2,0-0.3-0.1-0.4-0.2
		c-0.1-0.1-0.1-0.2-0.2-0.4c0-0.1,0-0.3,0-0.6v-2.1h1.1v-1.4h-1.1v-2.4h-1.6v5.8c0,0.5,0,0.9,0.1,1.2c0.1,0.3,0.2,0.6,0.4,0.8
		c0.2,0.2,0.5,0.3,0.8,0.4c0.3,0.1,0.7,0.1,1.2,0.1L17.7,18.9z M26.8,18.9V10h-1.6v8.8H26.8z M13.4,13.4c-0.4-0.5-1.1-0.7-1.8-0.7
		c-0.4,0-0.7,0.1-1,0.2c-0.3,0.2-0.6,0.4-0.8,0.6l-0.1,0.1v-0.1v-0.8H8.1v6h1.6v-3.2v0.2c0,0,0-0.1,0-0.1c0-0.6,0.2-1,0.4-1.3
		c0.3-0.3,0.6-0.4,1-0.4c0.5,0,0.8,0.1,1,0.4c0.2,0.3,0.3,0.7,0.3,1.2l0,0v0l0,0l0,0v3.2H14v-3.4C14.1,14.6,13.8,13.9,13.4,13.4z
		 M24.3,15.9c0-0.4-0.1-0.8-0.2-1.2c-0.2-0.4-0.4-0.7-0.6-1c-0.3-0.3-0.6-0.5-1-0.7c-0.4-0.2-0.8-0.2-1.3-0.2
		c-0.4,0-0.8,0.1-1.2,0.2c-0.4,0.2-0.7,0.4-1,0.7c-0.3,0.3-0.5,0.6-0.7,1c-0.2,0.4-0.2,0.8-0.2,1.2s0.1,0.8,0.2,1.2s0.4,0.7,0.6,1
		c0.3,0.3,0.6,0.5,1,0.7c0.4,0.2,0.8,0.3,1.3,0.3c1.3,0,2.2-0.6,2.7-1.2L22.8,17c-0.2,0.3-0.8,0.7-1.5,0.7c-0.4,0-0.8-0.1-1.1-0.3
		c-0.3-0.2-0.5-0.5-0.6-0.8l0-0.1h4.7L24.3,15.9z M19.6,15.3c0-0.4,0.5-1.2,1.6-1.2c1.1,0,1.6,0.8,1.6,1.2L19.6,15.3z"/>
</g>
</svg>
