<?xml version="1.0" encoding="utf-8"?>
<!-- Generator: Adobe Illustrator 24.1.1, SVG Export Plug-In . SVG Version: 6.00 Build 0)  -->
<svg version="1.1" id="Layer_1" xmlns="http://www.w3.org/2000/svg" xmlns:xlink="http://www.w3.org/1999/xlink" x="0px" y="0px"
	 viewBox="0 0 64 64" style="enable-background:new 0 0 64 64;" xml:space="preserve">
<style type="text/css">
	.st0{fill:#77B900;}
</style>
<path id="path2045" class="st0" d="M24.2,23.8v-3.7c0.4,0,0.7,0,1.1-0.1c10-0.3,16.6,8.6,16.6,8.6s-7.1,9.9-14.7,9.9
	c-1.1,0-2.1-0.2-3-0.5V27c3.9,0.5,4.7,2.2,7,6.1l5.2-4.4c0,0-3.8-5-10.2-5C25.5,23.7,24.9,23.7,24.2,23.8 M24.2,11.7v5.5
	c0.4,0,0.7-0.1,1.1-0.1c14-0.5,23.1,11.4,23.1,11.4S37.9,41.3,27,41.3c-1,0-1.9-0.1-2.8-0.2v3.4c0.7,0.1,1.5,0.2,2.3,0.2
	c10.1,0,17.5-5.2,24.5-11.3c1.2,0.9,6,3.2,7,4.2c-6.7,5.6-22.5,10.2-31.4,10.2c-0.9,0-1.7-0.1-2.5-0.1v4.8h38.5V11.7H24.2z
	 M24.2,38.1V41c-9.4-1.7-12-11.4-12-11.4s4.5-5,12-5.8V27c0,0,0,0,0,0c-3.9-0.5-7,3.2-7,3.2S18.9,36.3,24.2,38.1 M7.6,29.2
	c0,0,5.6-8.2,16.6-9v-3c-12.3,1-22.9,11.4-22.9,11.4s6,17.4,22.9,19v-3.2C11.8,42.8,7.6,29.2,7.6,29.2"/>
</svg>
