<svg xmlns="http://www.w3.org/2000/svg" viewBox="0 0 64 64"  xmlns:v="https://vecta.io/nano"><path d="M24.2 23.8v-3.7c.4 0 .7 0 1.1-.1 10-.3 16.6 8.6 16.6 8.6s-7.1 9.9-14.7 9.9c-1.1 0-2.1-.2-3-.5V27c3.9.5 4.7 2.2 7 6.1l5.2-4.4s-3.8-5-10.2-5c-.7 0-1.3 0-2 .1m0-12.1v5.5c.4 0 .7-.1 1.1-.1 14-.5 23.1 11.4 23.1 11.4S37.9 41.3 27 41.3c-1 0-1.9-.1-2.8-.2v3.4c.7.1 1.5.2 2.3.2 10.1 0 17.5-5.2 24.5-11.3 1.2.9 6 3.2 7 4.2-6.7 5.6-22.5 10.2-31.4 10.2-.9 0-1.7-.1-2.5-.1v4.8h38.5V11.7H24.2zm0 26.4V41c-9.4-1.7-12-11.4-12-11.4s4.5-5 12-5.8V27c-3.9-.5-7 3.2-7 3.2s1.7 6.1 7 7.9M7.6 29.2s5.6-8.2 16.6-9v-3c-12.3 1-22.9 11.4-22.9 11.4s6 17.4 22.9 19v-3.2C11.8 42.8 7.6 29.2 7.6 29.2" fill="#7c7c7c"/></svg>