<svg xmlns="http://www.w3.org/2000/svg" viewBox="0 0 16 16"  xmlns:v="https://vecta.io/nano"><path d="M8 15a6.99 6.99 0 0 1-6.7-5.1L3.9 11c.2.9 1 1.6 1.9 1.6 1.1 0 2-.9 2-2.1l2.4-1.7c1.5 0 2.7-1.2 2.7-2.6 0-1.5-1.2-2.6-2.6-2.6S7.7 4.7 7.7 6.2h0L6 8.6c-.5 0-.9.1-1.2.4L1 7.4C1.3 3.8 4.3 1 8 1c3.9 0 7 3.1 7 7s-3.1 7-7 7zm-1.2-4c.2-.6 0-1.2-.6-1.4l-.9-.4c.3-.1.7-.1 1.1 0 .4.2.7.4.8.8.2.4.1.8 0 1.1-.3.8-1.2 1.1-1.9.8-.3-.1-.6-.4-.8-.7l.9.4c.6.3 1.2 0 1.4-.6zm1.7-4.8a1.79 1.79 0 0 1 1.8-1.8 1.79 1.79 0 0 1 1.8 1.8A1.79 1.79 0 0 1 10.3 8a1.79 1.79 0 0 1-1.8-1.8zm3.1 0c0-.7-.6-1.3-1.3-1.3S9 5.5 9 6.2s.6 1.3 1.3 1.3 1.3-.6 1.3-1.3z" fill="#2d2e33"/></svg>